<svg id="Layer_1" data-name="Layer 1" xmlns="http://www.w3.org/2000/svg" viewBox="0 0 30.72 33.6"><defs><style>.cls-1{fill:#fff;}.cls-2,.cls-3{fill:#96c8ec;}.cls-3{font-size:4px;font-family:OpenSerif-Bold, Open Serif;font-weight:700;}</style></defs><title>NINJA CODING</title><polygon class="cls-1" points="15.29 2.01 12.04 4.63 10.16 8.55 9.14 11 7.72 11.73 6.97 13.68 5.55 14.42 5.99 16.92 6.63 19.45 8.06 21.64 10.59 23.7 12.95 25.8 15.07 27.91 16.03 27.35 18.56 24.98 19.73 23.81 21.44 22.67 23.6 20.34 24.6 17.26 25.14 14.93 22.29 9.92 21.49 8.44 19.96 6.84 18.85 4.63 16.48 2.56 15.29 2.01"/><path class="cls-2" d="M15.44,1.63A6.67,6.67,0,0,1,16.1,2c1.51,1.17,3.42,2,3.83,4.16.05.26.47.48.75.69a8.94,8.94,0,0,1,3.53,6c.06.4,0,.91.59,1,1,.09,1,.61.67,1.36a7.12,7.12,0,0,0-.37,1.58,10,10,0,0,1-3.61,6.6,49.94,49.94,0,0,0-5.42,4.75.84.84,0,0,1-1.45,0,50.66,50.66,0,0,0-5.51-4.83,10,10,0,0,1-3.52-6.51,6.45,6.45,0,0,0-.3-1.37c-.3-.78-.58-1.51.69-1.62.49,0,.43-.47.48-.81a8.77,8.77,0,0,1,3.72-6.21,1.53,1.53,0,0,0,.7-.89c.59-2.24,2.69-3,4.29-4.18C15.22,1.64,15.31,1.65,15.44,1.63ZM20.36,23c1.6-1.18,3.09-2.66,3.26-4.56.1-1.13.6-2,.76-3a1.91,1.91,0,0,1,.1-.34c.12-.34-.06-.62-.35-.57-1.12.19-2.41-1.66-3.39.28-.11.21-.34,0-.51,0s-.36-.28-.51-.08c-.7,1-2,.94-2.82,1.8a2.29,2.29,0,0,1-1.49.84,1.15,1.15,0,0,1,.66-1.69,6,6,0,0,0,2.15-2c-.84.61-1.44,1-2,1.47a1.47,1.47,0,0,1-2.07,0,9.68,9.68,0,0,1-3-3.18c-.85.93-.68,1.6.2,2.26s1.54,1.32,2.3,2a18.68,18.68,0,0,1-2.63-1c-.33-.15-.44-.72-1-.3-.33.25-.51-.09-.57-.34-.16-.66-.59-.59-1.08-.48-.64.16-1.28.33-1.93.44s-.66.32-.51.88c.27,1,.93,1.87.76,3.13S8.85,22.41,10.18,23a21.69,21.69,0,0,1-1.63-4.45,2.24,2.24,0,0,1,.78,1.12,34,34,0,0,0,4.85,7.1c.75.8,1.23.88,2,0a34.72,34.72,0,0,0,5-7.42c.15-.29.18-.71.67-.88C21.59,20.12,20.77,21.5,20.36,23Zm-10-11.73.25.12c.28-.76.56-1.51.86-2.26a4.5,4.5,0,0,1,3.85-2.77,4.5,4.5,0,0,1,3.94,2.8l1,2.58a30.07,30.07,0,0,0-1.15-6c-.55-1.67-2.27-2.33-3.68-3.2a.28.28,0,0,0-.22,0c-1.35.84-3,1.51-3.57,3A40.65,40.65,0,0,0,10.38,11.3Zm5.8.36c.11-.46.51-.91-.14-1.26a1.2,1.2,0,0,0-1.29-.07c-.71.36-.37.84-.25,1.35-.5-.5-.75-1.13-1.29-1.52-.29-.22-.47-.67-1-.42s-.29.52-.26.82c0,.46.13,1.08.67,1s.75.43,1.24.72c-.48,0-.65-.59-1-.3s.08.63.29.87c.54.64,1.12,1.25,1.69,1.87.32.34.63.25.9-.05.52-.55,1.05-1.1,1.54-1.67.24-.28.72-.55.46-1s-.48-.52.25-.46c.52,0,.63-.59.68-1.05,0-.3.07-.63-.3-.8s-.67.22-1,.43C17,10.55,16.71,11.2,16.18,11.66Z"/><path class="cls-2" d="M19.41,17.29a7,7,0,0,1-3.9,4.23,1,1,0,0,1-.89.08,7,7,0,0,1-4.11-4.28,20.3,20.3,0,0,0,3.37,2.76,1.79,1.79,0,0,0,2.22,0A18.53,18.53,0,0,0,19.41,17.29Z"/><path class="cls-2" d="M12,21.48l2.48,2.25a1,1,0,0,0,1.44,0c.83-.75,1.67-1.49,2.57-2.18a12.73,12.73,0,0,1-2.91,3.3c-.3.26-.55.18-.81-.07A10.44,10.44,0,0,1,12,21.48Z"/><path class="cls-2" d="M13,6.53a3.4,3.4,0,0,1,4.62,0S15.15,5.05,13,6.53Z"/><path class="cls-1" d="M13,8.67A1.67,1.67,0,0,0,13.93,10S14.38,9.47,13,8.67Z"/><path class="cls-1" d="M17.66,8.67A1.67,1.67,0,0,1,16.74,10S16.29,9.47,17.66,8.67Z"/><text class="cls-3" transform="matrix(0.39, 0.92, -0.92, 0.39, 1.87, 22.32)">N</text><text class="cls-3" transform="translate(3.39 25.62) rotate(55.81)">I</text><text class="cls-3" transform="matrix(0.72, 0.7, -0.7, 0.72, 4.39, 27.19)">N</text><text class="cls-3" transform="translate(7.06 29.63) rotate(33.23)">J</text><text class="cls-3" transform="matrix(0.92, 0.39, -0.39, 0.92, 8.46, 30.58)">A</text><text class="cls-3" transform="translate(11.35 31.73) rotate(14.13)"> </text><text class="cls-3" transform="translate(12.5 32.01) rotate(9.25)"> </text><text class="cls-3" transform="matrix(1, 0.01, -0.01, 1, 13.77, 32.25)">C</text><text class="cls-3" transform="translate(16.63 32.29) rotate(-12.41)">O</text><text class="cls-3" transform="matrix(0.89, -0.45, 0.45, 0.89, 20.1, 31.46)">D</text><text class="cls-3" transform="matrix(0.79, -0.61, 0.61, 0.79, 23, 29.88)">I</text><text class="cls-3" transform="translate(24.5 28.81) rotate(-48.85)">N</text><text class="cls-3" transform="translate(26.91 25.94) rotate(-63.73)">G</text></svg>